<svg width="114" height="28" viewBox="0 0 114 28" fill="none" xmlns="http://www.w3.org/2000/svg">
<g clip-path="url(#clip0_832_1396)">
<path d="M49.328 22.2856C48.176 22.2856 47.128 22.1576 46.184 21.9016C45.256 21.6456 44.456 21.2616 43.784 20.7496C43.128 20.2536 42.616 19.6216 42.248 18.8536C41.896 18.1016 41.72 17.2216 41.72 16.2136C41.72 15.7496 41.8 15.1176 41.96 14.3176C42.12 13.5176 42.392 12.6216 42.776 11.6296L44.888 12.3256C44.632 13.0136 44.44 13.6616 44.312 14.2696C44.2 14.8616 44.144 15.3896 44.144 15.8536C44.144 16.5096 44.256 17.0856 44.48 17.5816C44.72 18.0776 45.072 18.4936 45.536 18.8296C46 19.1656 46.568 19.4136 47.24 19.5736C47.928 19.7496 48.712 19.8376 49.592 19.8376C50.68 19.8376 51.624 19.7336 52.424 19.5256C53.224 19.3336 53.888 19.0856 54.416 18.7816C54.96 18.4936 55.36 18.1816 55.616 17.8456C55.888 17.5256 56.024 17.2376 56.024 16.9816C56.024 16.7416 55.928 16.5096 55.736 16.2856C55.56 16.0456 55.248 15.8056 54.8 15.5656C54.352 15.3096 53.728 15.0376 52.928 14.7496L54.104 12.6136C54.968 13.0936 55.664 13.5016 56.192 13.8376C56.736 14.1736 57.152 14.4776 57.44 14.7496C57.744 15.0056 57.952 15.2536 58.064 15.4936C58.176 15.7336 58.232 16.0136 58.232 16.3336C58.232 16.8456 58.128 17.3816 57.92 17.9416C57.712 18.5016 57.384 19.0376 56.936 19.5496C56.504 20.0616 55.936 20.5256 55.232 20.9416C54.544 21.3576 53.712 21.6856 52.736 21.9256C51.76 22.1656 50.624 22.2856 49.328 22.2856ZM60.32 16.7656C59.968 16.7656 59.56 16.7256 59.096 16.6456C58.632 16.5656 58.144 16.4456 57.632 16.2856C57.136 16.1256 56.632 15.9336 56.12 15.7096C55.624 15.4696 55.16 15.1976 54.728 14.8936L54.104 12.6136C54.824 12.9656 55.472 13.2536 56.048 13.4776C56.624 13.7016 57.152 13.8776 57.632 14.0056C58.128 14.1176 58.592 14.1976 59.024 14.2456C59.456 14.2936 59.888 14.3176 60.32 14.3176H60.368V16.7656H60.32ZM47.312 28.1176L45.368 26.1496L47.216 24.1816L49.16 26.1496L47.312 28.1176ZM51.44 28.1176L49.496 26.1496L51.344 24.1816L53.288 26.1496L51.44 28.1176ZM60.3594 16.7656V14.3176H63.2874C63.4154 14.0776 63.5514 13.7016 63.6954 13.1896C63.8394 12.6616 63.9674 12.0936 64.0794 11.4856C64.1914 10.8776 64.2634 10.3256 64.2954 9.82962L67.1994 8.82162C66.9754 9.92562 66.7274 10.9256 66.4554 11.8216C66.1994 12.7176 65.8874 13.5656 65.5194 14.3656C65.1514 15.1496 64.6874 15.9496 64.1274 16.7656H60.3594ZM68.9274 16.7656C68.0634 16.7656 67.2954 16.6856 66.6234 16.5256C65.9674 16.3656 65.3834 16.1656 64.8714 15.9256C64.3754 15.6696 63.9194 15.4056 63.5034 15.1336L64.8234 13.5016C65.1434 13.6776 65.4874 13.8296 65.8554 13.9576C66.2234 14.0696 66.6154 14.1576 67.0314 14.2216C67.4634 14.2856 67.9114 14.3176 68.3754 14.3176H69.1434V16.7656H68.9274ZM60.3594 14.3176H60.5994V16.7656H60.3594C59.8794 16.7656 59.6394 16.3416 59.6394 15.4936C59.6394 14.7096 59.8794 14.3176 60.3594 14.3176ZM65.8314 5.79762L63.8874 3.82962L65.7354 1.86162L67.6794 3.82962L65.8314 5.79762ZM75.6524 22.2856C74.5324 22.2856 73.5644 22.0536 72.7484 21.5896C71.9484 21.1256 71.3564 20.4776 70.9724 19.6456C70.5884 18.8296 70.4684 17.8696 70.6124 16.7656H69.1484V14.3176H70.9724C71.1484 13.7416 71.3324 13.1496 71.5244 12.5416C71.7324 11.9176 71.9484 11.2776 72.1724 10.6216C72.4124 9.96562 72.6684 9.29362 72.9404 8.60562C73.2124 7.91762 73.4924 7.22162 73.7804 6.51762L75.5804 5.07762C76.2684 5.54162 76.8684 6.06962 77.3804 6.66162C77.8924 7.23762 78.3244 7.83762 78.6764 8.46162C79.0284 9.06962 79.2924 9.66962 79.4684 10.2616C79.6444 10.8376 79.7324 11.3576 79.7324 11.8216C79.7324 12.3016 79.6684 12.7496 79.5404 13.1656C79.4124 13.5816 79.2204 13.9656 78.9644 14.3176H81.6044V16.7656H79.3244C79.5484 17.0376 79.7404 17.3656 79.9004 17.7496C80.0604 18.1336 80.1404 18.5496 80.1404 18.9976C80.1404 19.6216 79.9724 20.1816 79.6364 20.6776C79.3164 21.1736 78.8204 21.5656 78.1484 21.8536C77.4924 22.1416 76.6604 22.2856 75.6524 22.2856ZM75.8204 19.8376C76.5084 19.8376 77.0284 19.7176 77.3804 19.4776C77.7324 19.2376 77.9084 18.9176 77.9084 18.5176C77.9084 18.1816 77.7964 17.8776 77.5724 17.6056C77.3644 17.3496 77.0284 17.1416 76.5644 16.9816C76.1164 16.8376 75.5164 16.7656 74.7644 16.7656H73.1084C73.0284 17.2296 73.0364 17.6456 73.1324 18.0136C73.2284 18.3976 73.3964 18.7256 73.6364 18.9976C73.8764 19.2696 74.1804 19.4776 74.5484 19.6216C74.9164 19.7656 75.3404 19.8376 75.8204 19.8376ZM73.4684 14.3176H74.5244C74.9884 14.3176 75.3884 14.2536 75.7244 14.1256C76.0764 13.9816 76.3644 13.7976 76.5884 13.5736C76.8124 13.3336 76.9724 13.0616 77.0684 12.7576C77.1804 12.4536 77.2364 12.1416 77.2364 11.8216C77.2364 11.4856 77.1484 11.0456 76.9724 10.5016C76.7964 9.94162 76.5244 9.38962 76.1564 8.84562C75.7884 8.30162 75.3164 7.88562 74.7404 7.59762L75.8204 7.30962C75.6284 7.80562 75.4124 8.37362 75.1724 9.01362C74.9484 9.63762 74.7244 10.2776 74.5004 10.9336C74.2924 11.5736 74.0924 12.1896 73.9004 12.7816C73.7244 13.3736 73.5804 13.8856 73.4684 14.3176ZM69.1484 14.3176H69.3884V16.7656H69.1484C68.6684 16.7656 68.4284 16.3416 68.4284 15.4936C68.4284 14.7096 68.6684 14.3176 69.1484 14.3176ZM81.5938 16.7656V14.3176H82.2898C83.7938 14.3176 85.0818 14.2616 86.1538 14.1496C87.2258 14.0376 88.1458 13.8856 88.9138 13.6936C89.6978 13.5016 90.3858 13.2776 90.9778 13.0216C91.5698 12.7496 92.1378 12.4696 92.6818 12.1816C92.8418 12.0856 93.0018 11.9976 93.1618 11.9176C93.3218 11.8376 93.4818 11.7576 93.6418 11.6776C93.8018 11.5976 93.9618 11.5176 94.1218 11.4376C93.5138 11.2136 92.9138 10.9576 92.3218 10.6696C91.7298 10.3656 91.1458 10.0696 90.5698 9.78162C89.9938 9.47762 89.4258 9.22962 88.8658 9.03762C88.3218 8.84562 87.7858 8.74962 87.2578 8.74962C86.7778 8.74962 86.2738 8.87762 85.7458 9.13362C85.2178 9.37362 84.7218 9.91762 84.2578 10.7656L82.5298 9.87762C82.9618 8.99762 83.4418 8.29362 83.9698 7.76562C84.5138 7.23762 85.0898 6.85362 85.6978 6.61362C86.3218 6.37362 86.9538 6.25362 87.5938 6.25362C88.3618 6.25362 89.0978 6.39762 89.8018 6.68562C90.5218 6.95762 91.2178 7.29362 91.8898 7.69362C92.5778 8.09362 93.2498 8.50162 93.9058 8.91762C94.5618 9.31762 95.2178 9.66162 95.8738 9.94962C96.5298 10.2216 97.1858 10.3576 97.8418 10.3576V12.5176C97.3938 12.5176 96.8258 12.6776 96.1378 12.9976C95.4658 13.3176 94.6898 13.7096 93.8098 14.1736C93.2658 14.4616 92.6658 14.7576 92.0098 15.0616C91.3538 15.3656 90.5858 15.6456 89.7058 15.9016C88.8258 16.1576 87.7698 16.3656 86.5378 16.5256C85.3058 16.6856 83.8418 16.7656 82.1458 16.7656H81.5938ZM81.5938 14.3176H81.8338V16.7656H81.5938C81.1137 16.7656 80.8737 16.3416 80.8737 15.4936C80.8737 14.7096 81.1137 14.3176 81.5938 14.3176ZM89.2738 22.5976L87.3298 20.6296L89.1778 18.6616L91.1218 20.6296L89.2738 22.5976ZM105.553 7.45362C106.273 7.45362 106.929 7.62162 107.521 7.95762C108.113 8.29362 108.617 8.77362 109.033 9.39762C109.449 10.0216 109.769 10.7736 109.993 11.6536C110.233 12.5336 110.353 13.5176 110.353 14.6056C110.353 15.2776 110.265 15.9736 110.089 16.6936C109.929 17.4136 109.673 18.1016 109.321 18.7576C108.985 19.4296 108.553 20.0296 108.025 20.5576C107.497 21.0856 106.873 21.5016 106.153 21.8056C105.433 22.1256 104.617 22.2856 103.705 22.2856C103.033 22.2856 102.305 22.1576 101.521 21.9016C100.737 21.6616 99.9931 21.2696 99.2891 20.7256L100.177 19.0456C100.689 19.2536 101.225 19.4376 101.785 19.5976C102.361 19.7576 102.873 19.8376 103.321 19.8376C104.105 19.8376 104.809 19.6936 105.433 19.4056C106.073 19.1176 106.609 18.7096 107.041 18.1816C107.473 17.6536 107.777 17.0376 107.953 16.3336C107.537 16.4616 107.105 16.5656 106.657 16.6456C106.225 16.7096 105.801 16.7416 105.385 16.7416C104.569 16.7416 103.865 16.6456 103.273 16.4536C102.697 16.2456 102.217 15.9736 101.833 15.6376C101.465 15.2856 101.193 14.8856 101.017 14.4376C100.841 13.9896 100.753 13.5096 100.753 12.9976C100.753 12.1656 100.889 11.4136 101.161 10.7416C101.433 10.0536 101.793 9.46962 102.241 8.98962C102.705 8.49362 103.217 8.11762 103.777 7.86162C104.353 7.58962 104.945 7.45362 105.553 7.45362ZM103.033 12.5176C103.033 12.8696 103.113 13.1816 103.273 13.4536C103.449 13.7096 103.729 13.9176 104.113 14.0776C104.497 14.2216 105.025 14.2936 105.697 14.2936C106.097 14.2936 106.497 14.2616 106.897 14.1976C107.297 14.1336 107.697 14.0296 108.097 13.8856C108.033 13.1976 107.889 12.5576 107.665 11.9656C107.441 11.3576 107.137 10.8616 106.753 10.4776C106.385 10.0936 105.937 9.90162 105.409 9.90162C104.945 9.90162 104.529 10.0376 104.161 10.3096C103.809 10.5656 103.529 10.8936 103.321 11.2936C103.129 11.6936 103.033 12.1016 103.033 12.5176Z" fill="#FAAE4A"/>
<path d="M21.5417 1.53804L17.4986 6.00335C16.9555 6.54642 17.4383 7.45156 18.1624 7.45156H19.4296V12.822L22.0835 16.7251L24.7425 24.8104L24.8002 20.9078L24.8002 7.39121H26.0675C26.7916 7.39121 27.2744 6.48608 26.7313 5.94301L22.7485 1.4777C22.4468 1.17599 21.8434 1.11564 21.5417 1.53804Z" fill="#F73E48"/>
<path d="M26.6082 6.0055L22.6255 1.47985C22.5048 1.35917 22.3842 1.29883 22.2031 1.29883L22.2031 15.7809L24.4359 20.4876L24.7376 20.9703L24.7376 7.39337L26.0048 7.39337C26.7893 7.39337 27.1513 6.54858 26.6082 6.0055Z" fill="#E52C3B"/>
<path d="M15.2637 9.38424L15.7465 8.29808C16.0482 7.51364 15.3241 6.72919 14.6603 7.15159L9.0483 9.92732C8.62589 10.1687 8.44486 10.7721 8.68624 11.1342L11.4621 16.2632C11.8241 16.927 12.7293 17.0477 13.031 16.2632L13.5138 14.996C15.3844 15.8408 19.2464 19.5217 19.3068 26.7627L24.8584 26.7627C24.8584 18.7373 19.7895 11.0738 15.2637 9.38424Z" fill="#FFC44D"/>
<path d="M34.9403 9.86499L29.449 7.08926C28.7249 6.72721 28.0008 7.51166 28.3628 8.23576L28.9059 9.56328C27.4577 10.227 25.7077 11.4942 24.7422 12.8218L24.7731 22.8832L25.1043 22.0541C25.406 21.2696 27.8801 16.6233 30.2938 14.9941L30.8369 16.2612C31.199 16.9854 31.9835 16.925 32.3455 16.2612L35.1817 11.1925C35.5438 10.5891 35.4231 10.046 34.9403 9.86499Z" fill="#667FFF"/>
<path opacity="0.19" d="M14.8906 9.50351L15.6148 8.23633Z" fill="#FAAE4A"/>
<path opacity="0.19" d="M14.6589 7.0918L9.04688 9.98821L11.8227 16.2034" fill="#FAAE4A"/>
<path opacity="0.19" d="M22.0861 1.54102L17.5 6.48906Z" fill="#FAAE4A"/>
<path d="M28.9609 7.0293L35.1764 10.2878L31.6764 16.5633" fill="#5E74EF"/>
</g>
<defs>
<clipPath id="clip0_832_1396">
<rect width="114" height="28" fill="white"/>
</clipPath>
</defs>
</svg>
