<svg width="114" height="28" viewBox="0 0 114 28" fill="none" xmlns="http://www.w3.org/2000/svg">
<g clip-path="url(#clip0_832_1396)">
<rect width="114" height="28" fill="black"/>
<path d="M14.0247 0.326435L9.65051 5.15767C9.06294 5.74526 9.58522 6.72456 10.3687 6.72456H11.7397L11.7397 12.5351L14.6108 16.7581L17.4876 25.5059L17.5501 21.2836L17.5501 6.65927L18.9211 6.65927C19.7045 6.65927 20.2268 5.67997 19.6392 5.09239L15.3304 0.261148C15.0039 -0.065287 14.3511 -0.130574 14.0247 0.326435Z" fill="#F73E48"/>
<path d="M19.5002 5.1627L15.1914 0.266174C15.0608 0.1356 14.9302 0.0703125 14.7344 0.0703125L14.7344 15.7392L17.15 20.8316L17.4764 21.3539L17.4764 6.6643L18.8474 6.6643C19.6961 6.6643 20.0878 5.75028 19.5002 5.1627Z" fill="#E52C3B"/>
<path d="M7.23312 8.81519L7.75541 7.64002C8.08184 6.79129 7.2984 5.94256 6.58026 6.39957L0.50868 9.40277C0.0516797 9.66392 -0.144177 10.3168 0.116966 10.7085L3.12011 16.2579C3.51183 16.9761 4.49112 17.1066 4.81755 16.2579L5.33983 14.8869C7.36369 15.8009 11.542 19.7834 11.6073 27.6178L17.6136 27.6178C17.6136 18.9347 12.1296 10.6432 7.23312 8.81519Z" fill="#FFC44D"/>
<path d="M28.5177 9.33627L22.5767 6.33306C21.7932 5.94134 21.0098 6.79007 21.4015 7.57352L21.9891 9.00983C20.4222 9.72799 18.5289 11.099 17.4844 12.5353L17.5178 23.4213L17.8761 22.5242C18.2025 21.6755 20.8792 16.6484 23.4907 14.8857L24.0782 16.2567C24.47 17.0401 25.3187 16.9748 25.7104 16.2567L28.7788 10.7726C29.1705 10.1197 29.04 9.53213 28.5177 9.33627Z" fill="#667FFF"/>
<path opacity="0.19" d="M6.82812 8.94525L7.61156 7.57422Z" fill="#FAAE4A"/>
<path opacity="0.19" d="M6.57939 6.33594L0.507812 9.46971L3.51096 16.1943" fill="#FAAE4A"/>
<path opacity="0.19" d="M14.6102 0.332031L9.64844 5.68556Z" fill="#FAAE4A"/>
<path d="M22.0469 6.26758L28.7713 9.79308L24.9847 16.5829" fill="#5E74EF"/>
<path d="M34.588 5.10351L37.509 16.3505L40.338 5.10351H43.213L46.065 16.3735L48.963 5.10351H52.275L47.882 22.3535H44.547L41.787 10.5315L39.027 22.3535H35.692L31.276 5.10351H34.588ZM58.1722 9.24351C58.9848 9.24351 59.7208 9.35085 60.3802 9.56551C61.0395 9.78018 61.5992 10.0868 62.0592 10.4855C62.5192 10.8688 62.8718 11.3442 63.1172 11.9115C63.3778 12.4635 63.5082 13.0768 63.5082 13.7515V22.3535H60.4722V20.3985C60.0275 21.1038 59.4295 21.6482 58.6782 22.0315C57.9422 22.3995 57.0758 22.5835 56.0792 22.5835C54.7912 22.5835 53.7562 22.2692 52.9742 21.6405C52.2075 20.9965 51.8242 20.0612 51.8242 18.8345C51.8242 18.1445 51.9468 17.5695 52.1922 17.1095C52.4375 16.6342 52.7595 16.2432 53.1582 15.9365C53.5722 15.6298 54.0322 15.3922 54.5382 15.2235C55.0595 15.0395 55.5885 14.9015 56.1252 14.8095C56.6618 14.7175 57.1832 14.6485 57.6892 14.6025C58.2105 14.5565 58.6782 14.5028 59.0922 14.4415C59.5062 14.3802 59.8358 14.3035 60.0812 14.2115C60.3265 14.1195 60.4568 13.9738 60.4722 13.7745C60.4415 13.2532 60.2038 12.8315 59.7592 12.5095C59.3298 12.1875 58.7395 12.0265 57.9882 12.0265C57.3442 12.0265 56.7845 12.1645 56.3092 12.4405C55.8492 12.7165 55.4045 13.1765 54.9752 13.8205L52.2382 13.1765C52.7902 11.8732 53.5645 10.8918 54.5612 10.2325C55.5578 9.57318 56.7615 9.24351 58.1722 9.24351ZM60.4722 16.0285C60.2728 16.1972 59.9968 16.3275 59.6442 16.4195C59.3068 16.4962 58.9312 16.5652 58.5172 16.6265C58.1185 16.6725 57.7045 16.7262 57.2752 16.7875C56.8612 16.8488 56.4778 16.9408 56.1252 17.0635C55.7878 17.1708 55.5118 17.3318 55.2972 17.5465C55.0825 17.7458 54.9752 18.0218 54.9752 18.3745C54.9752 18.8498 55.1515 19.2102 55.5042 19.4555C55.8568 19.6855 56.3552 19.8005 56.9992 19.8005C57.5052 19.8005 57.9652 19.7315 58.3792 19.5935C58.8085 19.4402 59.1765 19.2332 59.4832 18.9725C59.8052 18.6965 60.0505 18.3745 60.2192 18.0065C60.3878 17.6385 60.4722 17.2398 60.4722 16.8105V16.0285ZM65.9374 9.47352H68.9734V23.6875C68.9734 25.0215 68.5824 26.0488 67.8004 26.7695C67.0337 27.5055 65.945 27.8735 64.5344 27.8735H62.3494V25.0675H63.9364C65.2704 25.0675 65.9374 24.3928 65.9374 23.0435V9.47352ZM65.8684 5.31051H69.0194V8.32352H65.8684V5.31051ZM71.0452 9.47352H74.0812V22.3535H71.0452V9.47352ZM70.9992 5.33352H74.1502V8.32352H70.9992V5.33352ZM79.127 11.2905C79.6176 10.6465 80.2156 10.1482 80.921 9.79552C81.6416 9.42751 82.439 9.24351 83.313 9.24351C84.9996 9.24351 86.3183 9.71885 87.269 10.6695C88.2196 11.6048 88.695 12.9158 88.695 14.6025V22.3535H85.659V15.6145C85.659 14.5105 85.3983 13.6672 84.877 13.0845C84.3556 12.5018 83.612 12.2105 82.646 12.2105C82.1246 12.2105 81.6493 12.3025 81.22 12.4865C80.7906 12.6552 80.415 12.9005 80.093 13.2225C79.7863 13.5445 79.5486 13.9355 79.38 14.3955C79.2113 14.8402 79.127 15.3308 79.127 15.8675V22.3535H76.091V4.75851H79.127V11.2905ZM93.5631 11.2905C94.0537 10.6465 94.6517 10.1482 95.3571 9.79552C96.0777 9.42751 96.8751 9.24351 97.7491 9.24351C99.4357 9.24351 100.754 9.71885 101.705 10.6695C102.656 11.6048 103.131 12.9158 103.131 14.6025V22.3535H100.095V15.6145C100.095 14.5105 99.8344 13.6672 99.3131 13.0845C98.7917 12.5018 98.0481 12.2105 97.0821 12.2105C96.5607 12.2105 96.0854 12.3025 95.6561 12.4865C95.2267 12.6552 94.8511 12.9005 94.5291 13.2225C94.2224 13.5445 93.9847 13.9355 93.8161 14.3955C93.6474 14.8402 93.5631 15.3308 93.5631 15.8675V22.3535H90.5271V9.47352H93.5631V11.2905ZM105.032 9.47352H108.068V22.3535H105.032V9.47352ZM104.986 5.33352H108.137V8.32352H104.986V5.33352Z" fill="#FAAE4A"/>
</g>
<defs>
<clipPath id="clip0_832_1396">
<rect width="114" height="28" fill="white"/>
</clipPath>
</defs>
</svg>
