<svg width="45" height="43" viewBox="0 0 45 43" fill="none" xmlns="http://www.w3.org/2000/svg">
<path d="M21.4767 0.5L14.7767 7.9C13.8767 8.8 14.6767 10.3 15.8767 10.3H17.9767V19.2L22.7767 25.5L27.1767 35.8L26.8767 32.6V10.2H28.9767C30.1767 10.2 30.9767 8.7 30.0767 7.8L23.4767 0.4C22.9767 -0.1 21.9767 -0.2 21.4767 0.5Z" fill="#F73E48"/>
<path d="M29.8781 7.89961L23.2781 0.39961C23.0781 0.19961 22.8781 0.0996094 22.5781 0.0996094V24.0996L26.2781 31.8996L26.7781 32.6996V10.1996H28.8781C30.1781 10.1996 30.7781 8.79961 29.8781 7.89961Z" fill="#E52C3B"/>
<path d="M11.0792 13.4997L11.8792 11.6997C12.3792 10.3997 11.1792 9.0997 10.0792 9.7997L0.779159 14.3997C0.0791591 14.7997 -0.220839 15.7997 0.179161 16.3997L4.77916 24.8997C5.37916 25.9997 6.87916 26.1997 7.37916 24.8997L8.17916 22.7997C11.2792 24.1997 17.6792 30.2997 17.7792 42.2997H26.9792C26.9792 28.9997 18.5792 16.2997 11.0792 13.4997Z" fill="#FFC44D"/>
<path d="M43.6734 14.3L34.5734 9.69999C33.3734 9.09999 32.1734 10.4 32.7734 11.6L33.6734 13.8C31.2734 14.9 28.3734 17 26.7734 19.2L26.8734 35.8L27.3734 34.5C27.8734 33.2 31.9734 25.5 35.9734 22.8L36.8734 24.9C37.4734 26.1 38.7734 26 39.3734 24.9L44.0734 16.5C44.6734 15.5 44.4734 14.6 43.6734 14.3Z" fill="#667FFF"/>
<path opacity="0.19" d="M10.4766 13.6996L11.6766 11.5996Z" fill="#FAAE4A"/>
</svg>
