<svg width="129" height="55" viewBox="0 0 129 55" fill="none" xmlns="http://www.w3.org/2000/svg">
<path d="M46.5783 0.5L39.8783 7.9C38.9783 8.8 39.7783 10.3 40.9783 10.3H43.0783V19.2L47.8783 25.5L52.2783 35.8L51.9783 32.6V10.2H54.0783C55.2783 10.2 56.0783 8.7 55.1783 7.8L48.5783 0.4C48.0783 -0.1 47.0783 -0.2 46.5783 0.5Z" fill="#F73E48"/>
<path d="M54.9797 7.89961L48.3797 0.39961C48.1797 0.19961 47.9797 0.0996094 47.6797 0.0996094V24.0996L51.3797 31.8996L51.8797 32.6996V10.1996H53.9797C55.2797 10.1996 55.8797 8.79961 54.9797 7.89961Z" fill="#E52C3B"/>
<path d="M36.1807 13.4997L36.9807 11.6997C37.4807 10.3997 36.2807 9.0997 35.1807 9.7997L25.8807 14.3997C25.1807 14.7997 24.8807 15.7997 25.2807 16.3997L29.8807 24.8997C30.4807 25.9997 31.9807 26.1997 32.4807 24.8997L33.2807 22.7997C36.3807 24.1997 42.7807 30.2997 42.8807 42.2997H52.0807C52.0807 28.9997 43.6807 16.2997 36.1807 13.4997Z" fill="#FFC44D"/>
<path d="M68.775 14.3L59.675 9.69999C58.475 9.09999 57.275 10.4 57.875 11.6L58.775 13.8C56.375 14.9 53.475 17 51.875 19.2L51.975 35.8L52.475 34.5C52.975 33.2 57.075 25.5 61.075 22.8L61.975 24.9C62.575 26.1 63.875 26 64.475 24.9L69.175 16.5C69.775 15.5 69.575 14.6 68.775 14.3Z" fill="#667FFF"/>
<path d="M115.675 42.1993C115.175 41.4993 114.875 39.6993 114.675 38.3993C114.275 36.1993 112.775 34.4993 110.075 34.4993C107.375 34.4993 105.475 35.3993 105.575 35.8993C105.575 36.0993 106.475 37.6993 106.475 37.8993C106.475 38.0993 107.475 36.8993 109.375 36.9993C111.975 37.1993 111.875 40.1993 112.875 42.0993H102.275V37.3993L102.075 35.9993C100.875 30.5993 94.2748 30.0993 88.3748 31.5993L88.9748 33.9993C93.9748 32.4993 98.9748 32.3993 99.3748 37.4993L99.4748 42.0993H96.5748V39.4993C96.4748 36.3993 94.0747 35.0993 91.7747 35.1993C89.2747 35.2993 86.9748 37.4993 86.9748 39.7993C86.9748 40.7993 87.2748 41.4993 87.6748 42.0993H82.9748V34.6993H79.7747V42.1993L19.4155 42.0993C16.9155 42.0993 15.9155 36.9993 12.5155 36.9993C11.0155 36.9993 7.41547 39.2993 7.51547 41.9993C7.71547 45.7993 11.8155 43.8993 12.0155 45.6993C12.1155 46.6993 11.1155 46.6993 10.5155 46.6993H5.21547C2.91547 46.4993 2.51547 44.1993 3.21547 40.8993H0.715466C-0.584534 44.3993 -0.384533 49.3993 3.61547 49.4993H9.51547C13.3155 49.4993 14.9155 48.3993 15.0155 45.9993C14.9155 42.2993 10.3155 43.2993 10.3155 41.2993C10.4155 40.6993 11.5155 39.2993 12.7155 39.5993C14.4155 39.8993 15.1155 44.3993 18.5155 44.4993L116.575 44.6993C116.575 43.9993 116.675 42.5993 115.675 42.1993ZM93.1748 42.1993C92.0748 42.1993 90.0748 40.7993 90.5748 38.7993C90.8748 37.8993 91.5748 37.4993 92.0748 37.4993C93.1748 37.4993 93.5748 38.0993 93.4748 42.0993L93.1748 42.1993Z" fill="#FAAE4A"/>
<path d="M109.775 49.9004C110.548 49.9004 111.175 49.2288 111.175 48.4004C111.175 47.572 110.548 46.9004 109.775 46.9004C109.002 46.9004 108.375 47.572 108.375 48.4004C108.375 49.2288 109.002 49.9004 109.775 49.9004Z" fill="#FAAE4A"/>
<path d="M81.1813 33.0996C81.9545 33.0996 82.5813 32.428 82.5813 31.5996C82.5813 30.7712 81.9545 30.0996 81.1813 30.0996C80.4081 30.0996 79.7812 30.7712 79.7812 31.5996C79.7812 32.428 80.4081 33.0996 81.1813 33.0996Z" fill="#FAAE4A"/>
<path d="M4.68125 54.6992C5.45445 54.6992 6.08125 54.0276 6.08125 53.1992C6.08125 52.3708 5.45445 51.6992 4.68125 51.6992C3.90805 51.6992 3.28125 52.3708 3.28125 53.1992C3.28125 54.0276 3.90805 54.6992 4.68125 54.6992Z" fill="#FAAE4A"/>
<path d="M8.275 54.6992C9.0482 54.6992 9.675 54.0276 9.675 53.1992C9.675 52.3708 9.0482 51.6992 8.275 51.6992C7.5018 51.6992 6.875 52.3708 6.875 53.1992C6.875 54.0276 7.5018 54.6992 8.275 54.6992Z" fill="#FAAE4A"/>
<path opacity="0.19" d="M35.5781 13.6996L36.7781 11.5996Z" fill="#FAAE4A"/>
<path d="M123.478 34.8996C120.078 35.3996 119.278 37.7996 118.978 39.7996C118.878 45.1996 123.378 44.6996 125.778 44.5996C125.778 47.5996 122.278 47.4996 120.278 46.1996L119.078 48.6996C120.378 49.4996 127.378 50.9996 128.778 45.9996L128.878 34.5996C126.078 34.5996 124.678 34.6996 123.478 34.8996ZM125.778 41.9996C122.878 42.6996 122.178 41.7996 122.178 40.2996C122.178 37.2996 124.778 37.1996 125.678 37.2996L125.778 41.9996Z" fill="#FAAE4A"/>
</svg>
